<?xml version="1.0" encoding="UTF-8" standalone="no"?><!DOCTYPE svg PUBLIC "-//W3C//DTD SVG 1.1//EN" "http://www.w3.org/Graphics/SVG/1.1/DTD/svg11.dtd"><svg width="100%" height="100%" viewBox="0 0 2355 530" version="1.1" xmlns="http://www.w3.org/2000/svg" xmlns:xlink="http://www.w3.org/1999/xlink" xml:space="preserve" xmlns:serif="http://www.serif.com/" style="fill-rule:evenodd;clip-rule:evenodd;stroke-linejoin:round;stroke-miterlimit:2;"><rect id="Gradient-Negative" serif:id="Gradient Negative" x="0.375" y="0.469" width="2354.17" height="529.167" style="fill:none;"/><path d="M167.267,516.083l-155.325,0l30.475,-171.825l161.246,-144.741l-137.125,-0l110.888,-67.717l180.291,0l-233.195,229.387l-15.659,87.605c0,-0 52.054,3.808 93.109,-0c41.05,-4.23 87.183,-21.159 87.183,-21.159l-121.888,88.45Zm244.2,-367.775l-69.408,67.713c0,-0 58.404,64.754 4.654,153.633c-52.904,87.179 -228.541,71.096 -228.541,71.096l13.541,-76.6l247.167,-240.392l-204.842,0l20.738,-116.808l-99.034,-0l-35.55,199.763l126.117,-0l-149.821,134.583l-31.737,181.137c-0,0 119.771,3.388 221.346,0c101.995,-3.383 220.92,-90.571 238.275,-189.179c23.7,-133.316 -52.905,-184.946 -52.905,-184.946Z" style="fill:url(#_Linear1);"/><path d="M707.711,134.3c27.506,-0 52.037,6.414 73.593,19.241c21.555,12.828 38.218,31.011 49.988,54.55c11.769,23.54 17.654,50.12 17.654,79.743c-0,13.224 -1.322,27.242 -3.967,42.053l-233.277,-0c-1.587,9.257 -2.38,17.721 -2.38,25.391c-0,19.572 3.901,36.697 11.703,51.376c7.803,14.679 18.713,25.92 32.731,33.722c14.017,7.802 29.754,11.703 47.21,11.703c17.192,0 36.103,-3.636 56.732,-10.91c20.63,-7.273 44.037,-18.315 70.221,-33.127l-14.679,77.363c-42.317,23.274 -83.842,34.912 -124.572,34.912c-33.061,-0 -62.221,-7.274 -87.479,-21.82c-25.258,-14.547 -44.698,-35.441 -58.319,-62.684c-13.621,-27.242 -20.432,-58.451 -20.432,-93.627c0,-37.822 8.199,-72.8 24.598,-104.935c16.398,-32.135 38.813,-57.327 67.245,-75.577c28.432,-18.249 59.575,-27.374 93.43,-27.374Zm56.732,141.235l-0,-6.347c-0,-21.159 -5.224,-37.954 -15.671,-50.385c-10.447,-12.431 -25.324,-18.646 -44.632,-18.646c-38.086,-0 -65.46,25.126 -82.123,75.378l142.426,0Z" style="fill:#fff;fill-rule:nonzero;"/><path d="M1089.76,134.3c27.507,-0 52.038,6.414 73.593,19.241c21.556,12.828 38.218,31.011 49.988,54.55c11.77,23.54 17.655,50.12 17.655,79.743c-0,13.224 -1.323,27.242 -3.968,42.053l-233.276,-0c-1.587,9.257 -2.38,17.721 -2.38,25.391c-0,19.572 3.901,36.697 11.703,51.376c7.802,14.679 18.712,25.92 32.73,33.722c14.018,7.802 29.755,11.703 47.211,11.703c17.191,0 36.102,-3.636 56.732,-10.91c20.63,-7.273 44.037,-18.315 70.221,-33.127l-14.679,77.363c-42.318,23.274 -83.842,34.912 -124.573,34.912c-33.061,-0 -62.22,-7.274 -87.478,-21.82c-25.259,-14.547 -44.699,-35.441 -58.32,-62.684c-13.621,-27.242 -20.431,-58.451 -20.431,-93.627c-0,-37.822 8.199,-72.8 24.597,-104.935c16.398,-32.135 38.813,-57.327 67.246,-75.577c28.432,-18.249 59.575,-27.374 93.429,-27.374Zm56.732,141.235l0,-6.347c0,-21.159 -5.223,-37.954 -15.67,-50.385c-10.448,-12.431 -25.325,-18.646 -44.632,-18.646c-38.086,-0 -65.461,25.126 -82.123,75.378l142.425,0Z" style="fill:#fff;fill-rule:nonzero;"/><path d="M1617.81,143.821l-215.424,291.992l188.843,0l-13.092,74.585l-333.252,0l215.424,-292.388l-168.213,-0l9.521,-74.189l316.193,0Z" style="fill:url(#_Linear2);fill-rule:nonzero;"/><path d="M1826.88,134.3c27.506,-0 52.037,6.414 73.593,19.241c21.555,12.828 38.218,31.011 49.988,54.55c11.769,23.54 17.654,50.12 17.654,79.743c0,13.224 -1.322,27.242 -3.967,42.053l-233.277,-0c-1.586,9.257 -2.38,17.721 -2.38,25.391c0,19.572 3.901,36.697 11.704,51.376c7.802,14.679 18.712,25.92 32.73,33.722c14.017,7.802 29.754,11.703 47.21,11.703c17.192,0 36.103,-3.636 56.733,-10.91c20.629,-7.273 44.036,-18.315 70.22,-33.127l-14.678,77.363c-42.318,23.274 -83.842,34.912 -124.573,34.912c-33.061,-0 -62.22,-7.274 -87.479,-21.82c-25.258,-14.547 -44.698,-35.441 -58.319,-62.684c-13.621,-27.242 -20.431,-58.451 -20.431,-93.627c-0,-37.822 8.199,-72.8 24.597,-104.935c16.398,-32.135 38.813,-57.327 67.245,-75.577c28.432,-18.249 59.576,-27.374 93.43,-27.374Zm56.732,141.235l-0,-6.347c-0,-21.159 -5.224,-37.954 -15.671,-50.385c-10.447,-12.431 -25.324,-18.646 -44.632,-18.646c-38.086,-0 -65.46,25.126 -82.123,75.378l142.426,0Z" style="fill:#fff;fill-rule:nonzero;"/><path d="M2208.93,134.3c27.507,-0 52.038,6.414 73.593,19.241c21.556,12.828 38.219,31.011 49.988,54.55c11.77,23.54 17.655,50.12 17.655,79.743c-0,13.224 -1.323,27.242 -3.968,42.053l-233.276,-0c-1.587,9.257 -2.38,17.721 -2.38,25.391c-0,19.572 3.901,36.697 11.703,51.376c7.802,14.679 18.712,25.92 32.73,33.722c14.018,7.802 29.755,11.703 47.211,11.703c17.191,0 36.102,-3.636 56.732,-10.91c20.63,-7.273 44.037,-18.315 70.221,-33.127l-14.679,77.363c-42.318,23.274 -83.842,34.912 -124.573,34.912c-33.06,-0 -62.22,-7.274 -87.478,-21.82c-25.259,-14.547 -44.698,-35.441 -58.319,-62.684c-13.621,-27.242 -20.432,-58.451 -20.432,-93.627c0,-37.822 8.199,-72.8 24.597,-104.935c16.398,-32.135 38.814,-57.327 67.246,-75.577c28.432,-18.249 59.575,-27.374 93.429,-27.374Zm56.732,141.235l0,-6.347c0,-21.159 -5.223,-37.954 -15.67,-50.385c-10.447,-12.431 -25.325,-18.646 -44.632,-18.646c-38.086,-0 -65.46,25.126 -82.123,75.378l142.425,0Z" style="fill:#fff;fill-rule:nonzero;"/><defs><linearGradient id="_Linear1" x1="0" y1="0" x2="1" y2="0" gradientUnits="userSpaceOnUse" gradientTransform="matrix(464.171,0,0,-464.171,4.75075,265.443)"><stop offset="0" style="stop-color:#12c1e1;stop-opacity:1"/><stop offset="0.7" style="stop-color:#12c1e1;stop-opacity:1"/><stop offset="1" style="stop-color:#1694d2;stop-opacity:1"/></linearGradient><linearGradient id="_Linear2" x1="0" y1="0" x2="1" y2="0" gradientUnits="userSpaceOnUse" gradientTransform="matrix(2.24317e-14,366.337,-366.337,2.24317e-14,1413.89,143.821)"><stop offset="0" style="stop-color:#12c1e1;stop-opacity:1"/><stop offset="0.7" style="stop-color:#12c1e1;stop-opacity:1"/><stop offset="1" style="stop-color:#1694d2;stop-opacity:1"/></linearGradient></defs></svg>